<svg width="40" height="45" viewBox="0 0 40 45" fill="none" xmlns="http://www.w3.org/2000/svg">
<path d="M12.9618 14.878C14.653 13.1489 17.5897 14.3463 17.5897 16.765V31.0244C17.5897 32.6829 18.8779 34 20.5 34C22.1221 34 23.4103 32.6829 23.4103 31.0244V16.7162C23.4103 14.2975 26.347 13.1001 28.0382 14.8293C28.6107 15.4146 29.3263 15.7073 30.0897 15.7073C30.8531 15.7073 31.5687 15.4146 32.1412 14.8293C33.2863 13.6585 33.2863 11.8049 32.1412 10.6341L22.5515 0.878049C21.4065 -0.292683 19.5935 -0.292683 18.4485 0.878049L8.85878 10.6829C7.71374 11.8537 7.71374 13.7073 8.85878 14.878C10.0038 16.0488 11.8168 16.0488 12.9618 14.878Z" fill="black"/>
<path d="M37.1192 29C35.5136 29 34.2385 30.2414 34.2385 31.8046C34.2385 35.9943 30.842 39.3908 26.6523 39.3908H13.3477C9.15797 39.3908 5.76151 35.9943 5.76151 31.8046C5.76151 30.2414 4.48642 29 2.88076 29C1.27509 29 0 30.2414 0 31.8046V42.1954C0 43.7586 1.27509 45 2.88076 45H37.1192C38.7249 45 40 43.7586 40 42.1954V31.8046C40 30.2414 38.7249 29 37.1192 29Z" fill="black"/>
</svg>
